<?xml version="1.0" encoding="UTF-8" standalone="no"?>
<!-- Created with Inkscape (http://www.inkscape.org/) -->

<svg
   width="500"
   height="500"
   viewBox="0 0 132.29166 132.29167"
   version="1.1"
   id="svg24263"
   inkscape:version="1.2.2 (b0a8486541, 2022-12-01)"
   sodipodi:docname="dedo.svg"
   xmlns:inkscape="http://www.inkscape.org/namespaces/inkscape"
   xmlns:sodipodi="http://sodipodi.sourceforge.net/DTD/sodipodi-0.dtd"
   xmlns="http://www.w3.org/2000/svg"
   xmlns:svg="http://www.w3.org/2000/svg">
  <sodipodi:namedview
     id="namedview24265"
     pagecolor="#ffffff"
     bordercolor="#000000"
     borderopacity="0.25"
     inkscape:showpageshadow="2"
     inkscape:pageopacity="0.0"
     inkscape:pagecheckerboard="0"
     inkscape:deskcolor="#d1d1d1"
     inkscape:document-units="mm"
     showgrid="false"
     inkscape:zoom="0.786"
     inkscape:cx="43.89313"
     inkscape:cy="396.94656"
     inkscape:window-width="1920"
     inkscape:window-height="966"
     inkscape:window-x="0"
     inkscape:window-y="872"
     inkscape:window-maximized="1"
     inkscape:current-layer="layer1" />
  <defs
     id="defs24260" />
  <g
     inkscape:label="Camada 1"
     inkscape:groupmode="layer"
     id="layer1">
    <g
       id="g24745"
       transform="matrix(-1.2479885,-0.45902288,-0.45902288,1.2479885,146.58934,26.083161)">
      <path
         d="M 71.185173,66.112023 C 70.963212,65.785768 70.7466,65.455501 70.529988,65.124566 L 69.305194,63.25729 69.054485,58.268526 68.920774,56.205363 68.633964,55.9941 c -0.502754,-0.369043 -1.031582,-0.726721 -1.666041,-1.12518 -0.562924,-0.352997 -1.145905,-0.690618 -1.732228,-1.005508 -0.594347,-0.31489 -1.207412,-0.607048 -1.825158,-0.869122 -0.423196,-0.172488 -0.865111,-0.32893 -1.34714,-0.476012 0.0047,-0.332941 0.01137,-0.66655 0.02607,-1.002165 l 0.0254,-0.518131 c 0.01872,-0.367037 0.03744,-0.737417 0.04145,-1.123842 0.0027,-0.359015 -0.01203,-0.639808 -0.04613,-0.908568 -0.03343,-0.284804 -0.111649,-0.623762 -0.215275,-0.925281 -0.153768,-0.482028 -0.312215,-0.949349 -0.472669,-1.419344 l -0.04479,-0.131705 c -0.699309,-2.031741 -1.450766,-4.08287 -2.232976,-6.097229 -0.915253,-2.349974 -1.715515,-4.256695 -2.51845,-6.000288 -0.112317,-0.249372 -0.23132,-0.496737 -0.346312,-0.734743 -0.125688,-0.357678 -0.292827,-0.714018 -0.453949,-1.058324 l -0.189202,-0.407819 -0.07621,0.0361 c -0.133711,-0.2594 -0.269428,-0.518799 -0.413167,-0.785553 -0.08424,-0.13906 -0.165134,-0.279456 -0.246029,-0.419185 -0.193881,-0.335615 -0.393111,-0.682595 -0.631117,-1.010187 l -0.449938,-0.654517 c -0.121677,-0.18519 -0.218617,-0.374391 -0.28681,-0.563592 -0.0361,-0.09828 -0.06686,-0.197893 -0.09092,-0.299513 -0.02607,-0.107638 -0.04078,-0.197224 -0.0595,-0.329598 L 53.265875,27.37055 c -0.07488,-0.528828 -0.147082,-1.058993 -0.214606,-1.589826 -0.131037,-1.021553 -0.254051,-2.093917 -0.3657,-3.187674 -0.109643,-1.091083 -0.205247,-2.166121 -0.28213,-3.197034 l -0.223967,-3.196365 c -0.02139,-0.536182 -0.04947,-1.073032 -0.08223,-1.605871 -0.01738,-0.344307 -0.02942,-0.687944 -0.04078,-1.031582 l -0.02139,-0.572284 c -0.01671,-0.352329 -0.02006,-0.703989 -0.02407,-1.056318 l -0.01003,-0.817644 c -0.0033,-0.172487 -0.0053,-0.345643 -0.0047,-0.515456 0.0053,-0.268091 0.006,-0.537519 0.006,-0.806947 V 9.6859136 c -6.69e-4,-0.4947313 -6.69e-4,-0.9901312 0.02139,-1.4868681 l 0.03811,-1.1933721 0.126357,-2.0083417 c 0.05883,-0.5856548 0.100283,-1.1666298 0.135048,-1.7268796 l 0.0074,-0.1230143 -0.08691,-0.087581 C 52.164092,2.9796303 52.077179,2.8987351 51.986924,2.8225197 51.890652,2.7416245 51.779672,2.6593921 51.677383,2.5972164 51.545009,2.5109727 51.411966,2.4253976 51.279592,2.3572049 50.996793,2.1960829 50.682572,2.0583604 50.318209,1.9360147 49.666367,1.7227454 48.951012,1.6304847 48.252372,1.6712666 47.609889,1.7040259 46.935317,1.8464282 46.246036,2.095131 45.567451,2.3471765 44.974442,2.652038 44.404833,3.0491601 l -0.09159,0.1002834 C 43.603903,4.1034726 42.962758,5.1898758 42.294202,6.5691064 42.016083,7.15075 41.749998,7.76181 41.503301,8.3862411 41.279335,8.965879 41.068739,9.5802817 40.86015,10.266889 c -0.787559,2.612716 -1.050301,5.362486 -0.759479,7.955814 0.07488,0.59234 0.174493,1.292986 0.343637,1.998313 l 0.04145,0.17115 c 0.0254,0.106301 0.05081,0.212601 0.08089,0.32425 l 0.137723,0.474006 c 0.06151,0.229314 0.139059,0.452612 0.21728,0.67591 l 0.09293,0.267422 -0.338289,3.47181 c -0.246028,2.313203 -0.506097,4.627075 -0.768839,6.939609 -1.042947,-0.05749 -2.099265,-0.10162 -3.215085,-0.133711 -1.404636,-0.04078 -2.701634,-0.05616 -3.96253,-0.04747 -1.478177,0.008 -2.777181,0.04814 -3.973227,0.123014 -1.265576,0.08089 -2.620739,0.191207 -3.960525,0.453281 -0.347649,0.03477 -0.689281,0.145077 -0.988794,0.320238 -0.30553,0.177836 -0.574958,0.439241 -0.779536,0.760148 -0.0488,0.07755 -0.09293,0.156442 -0.130368,0.236669 -0.0074,0.01671 -0.01538,0.0341 -0.0234,0.05215 -0.06886,0.05683 -0.153099,0.121009 -0.23132,0.18051 l -0.66187,0.50476 c -0.369043,0.28681 -0.85174,0.670561 -1.307695,1.095094 -0.244692,0.228646 -0.441247,0.431887 -0.619083,0.641145 -0.195887,0.232658 -0.395785,0.493395 -0.53685,0.822993 -0.07889,0.173155 -0.128363,0.401133 -0.131706,0.615071 0,0.17115 0.0127,0.338958 0.0361,0.4954 0.04078,0.281462 0.09895,0.568272 0.177836,0.875139 0.133711,0.530165 0.293496,1.065678 0.488714,1.637293 0.186527,0.550222 0.380409,1.084398 0.57897,1.591832 0.182515,0.441915 0.371048,0.877814 0.567604,1.316386 -0.104295,0.655185 -0.18987,1.34246 -0.262074,2.098597 -0.07889,0.86578 -0.12034,1.63395 -0.127026,2.352648 0.0013,0.913915 0.05349,1.676738 0.163796,2.402789 0.07555,0.459298 0.167808,0.859763 0.282131,1.2268 0.09493,0.300182 0.201904,0.566267 0.326255,0.81029 -0.368374,0.651173 -0.697972,1.359174 -1.006845,2.165452 l -0.02607,0.07354 c -0.151762,0.433224 -0.31021,0.881825 -0.369042,1.395276 -0.0087,0.07354 -0.01203,0.145745 -0.01137,0.255388 l 0.0053,0.06819 c 0.0053,0.06485 0.0107,0.131037 0.02006,0.170482 0.02407,0.131037 0.05014,0.260068 0.08089,0.373054 0.04011,0.163796 0.08624,0.322912 0.133043,0.482029 l 0.06084,0.209926 c 0.260068,0.8611 0.544873,1.776353 0.906561,2.670212 0.351661,0.859763 0.696635,1.577792 1.208749,2.257044 -0.01872,0.02541 -0.0361,0.05014 -0.05215,0.0722 -0.12034,0.153768 -0.224635,0.318233 -0.32893,0.483366 l -0.308204,0.525485 c -0.04279,0.07488 -0.07956,0.153099 -0.116329,0.231989 l -0.05749,0.121009 c -0.05683,0.106969 -0.102958,0.217949 -0.167139,0.373054 -0.05482,0.126357 -0.104964,0.25472 -0.145077,0.379071 -0.330935,0.95336 -0.50008,2.000987 -0.501417,3.109453 -0.0047,0.257394 0,0.512782 0.0053,0.767502 l 0.01203,0.322912 c 0.008,0.06819 0.01805,0.13906 0.03677,0.213938 0.0722,0.254051 0.192544,0.426539 0.317564,0.591004 0.212601,0.254051 0.43055,0.432555 0.693961,0.623762 0.206584,0.147082 0.432556,0.290153 0.691955,0.437904 0.922607,0.5188 1.882654,0.923944 2.78253,1.285633 1.92544,0.768839 3.861578,1.383242 5.668016,1.932795 0.950686,0.287479 1.904715,0.564261 2.861419,0.832352 0.885836,0.243354 1.778358,0.460635 2.616727,0.659196 l 1.730222,2.441566 -0.505428,8.517401 0.317564,0.244022 c 1.121168,0.8611 2.311198,1.71284 3.745918,2.680241 1.251537,0.841711 2.557226,1.668046 3.878293,2.455605 1.136544,0.683264 2.378053,1.366528 4.026043,2.214925 1.273598,0.661202 2.642801,1.290313 4.185159,1.923435 l 0.293496,0.121009 1.341791,-1.003502 c 0.195887,-0.145077 0.391774,-0.290822 0.572284,-0.44459 L 57.0177,94.55171 57.815287,93.868446 c 0.178504,-0.162459 0.360351,-0.322244 0.54153,-0.48136 0.334278,-0.292827 0.679921,-0.596352 1.000828,-0.912579 l 0.75012,-0.710674 c 0.167807,-0.154437 0.326255,-0.318233 0.484034,-0.482029 0.08424,-0.08691 0.168476,-0.174493 0.256725,-0.262074 l 0.725383,-0.741428 c 0.159117,-0.163128 0.312216,-0.332273 0.463978,-0.501417 L 62.97988,88.73728 c 0.1531,-0.168476 0.298845,-0.342969 0.44459,-0.51813 l 0.23477,-0.27878 c 0.223966,-0.264748 0.445927,-0.53217 0.665213,-0.798924 0.146414,-0.175162 0.284136,-0.357009 0.421859,-0.539525 l 0.395116,-0.516793 c 0.359015,-0.469327 0.730732,-0.95403 1.069021,-1.450766 l 0.205915,-0.290822 c 0.327592,-0.464647 0.667887,-0.94467 0.968069,-1.441407 0.112317,-0.181178 0.227309,-0.360351 0.341632,-0.540193 0.256057,-0.399796 0.520136,-0.813632 0.752125,-1.232817 0.710675,-1.201394 1.374551,-2.440897 1.975583,-3.689759 l 0.433892,-0.948681 c 0.04546,-0.104294 0.09293,-0.207252 0.141066,-0.31021 0.100283,-0.215943 0.199898,-0.431887 0.28213,-0.651173 0.08892,-0.225303 0.179842,-0.449938 0.270765,-0.675241 0.169813,-0.419853 0.338958,-0.839706 0.499411,-1.272262 l 0.118335,-0.35166 c 0.181178,-0.541531 0.363026,-1.083061 0.540861,-1.637293 l 0.628443,-2.287798 -2.183503,-3.193023"
         style="fill:#1a1a1a;fill-opacity:1;fill-rule:nonzero;stroke:none;stroke-width:0.0668556"
         id="path8910" />
      <path
         d="M 51.80842,3.3466675 C 48.466978,0.69116383 44.751145,3.4683446 44.751145,3.4683446 43.26294,5.5482217 38.867854,13.752738 41.882372,21.988677 c 0.08758,0.239343 -1.284296,11.370129 -1.284296,11.370129 0,0 -10.579227,-0.834358 -15.721758,0.149756 -1.091752,0.08558 -1.47216,0.950018 -1.524307,1.114483 -0.05215,0.163796 -3.043935,2.063163 -3.386904,3.283946 -0.344306,1.220783 2.067843,6.073829 2.067843,6.073829 0,0 -1.089077,6.642771 0.482697,8.992744 -1.489542,2.354654 -1.769667,3.293306 -1.787049,3.86091 -0.01671,0.567604 1.408647,4.649137 2.723028,6.077172 -1.859923,2.059152 -1.895356,4.330905 -1.770336,6.480312 0.125688,2.150075 15.413554,5.980231 15.413554,5.980231 l 2.05982,2.901533 -0.500748,8.380347 c 0,0 7.643598,6.160073 15.565316,9.361786 7.449717,-5.36516 15.547934,-15.571333 18.462168,-26.593812 l -3.957181,-5.972209 -0.554233,-6.833309 c 0,0 -3.612207,-2.710994 -6.90217,-3.518609 0.002,-2.438223 0.262742,-3.511255 -0.05282,-4.593647 C 60.917493,47.482047 56.371313,34.060121 53.312002,29.983268 52.960341,29.515947 52.718993,28.977091 52.625395,28.400128 52.06314,24.905586 50.313529,12.627559 51.80842,3.3466675"
         style="fill:#ffc68d;fill-opacity:1;fill-rule:nonzero;stroke:none;stroke-width:0.0668556"
         id="path8920" />
      <path
         d="m 50.323557,81.406574 c 3.401612,-0.116997 10.234921,-6.05043 14.385984,-13.728793 4.150395,-7.677695 -3.511923,-12.021302 -3.511923,-12.021302 l 0.0702,-2.558563 c 0,0 5.855212,2.194869 6.90217,3.518609 l 0.554233,6.833309 3.957181,5.972209 c 0,0 -4.102926,16.287356 -18.462168,26.593812 0,0 -14.091151,-7.267201 -15.669611,-9.561016 l 0.962052,-9.008789 c 0,0 8.587599,4.036739 10.811884,3.960524"
         style="fill:#04a6b7;fill-opacity:1;fill-rule:nonzero;stroke:none;stroke-width:0.0668556"
         id="path8922" />
      <path
         d="m 51.568408,3.4395967 c -0.09092,0.5020854 -0.17583,0.9948111 -0.251377,1.4888738 -0.02006,0.1196715 -0.03477,0.2533826 -0.04814,0.389768 l -0.04212,0.4044763 -0.08491,0.8076154 -0.04145,0.4044762 -0.02741,0.4044763 -0.05616,0.8102896 c -0.04413,0.5401931 -0.06218,1.0810548 -0.08156,1.6219164 -0.08156,2.1627783 -0.06151,4.3275613 0.0234,6.4883343 0.08959,2.160772 0.242686,4.318202 0.454618,6.469614 0.110312,1.075038 0.232658,2.149407 0.371049,3.221771 0.06886,0.53685 0.141065,1.072363 0.218618,1.607876 l 0.117665,0.803604 c 0.01805,0.12502 0.04613,0.293496 0.08156,0.439242 0.03677,0.149756 0.08223,0.296838 0.135717,0.441246 0.1063,0.288148 0.247366,0.562256 0.414505,0.816307 l 0.243354,0.353666 0.215943,0.320907 c 0.301519,0.414504 0.546211,0.891185 0.815639,1.340454 0.249371,0.466652 0.496068,0.937315 0.734074,1.412659 0.227977,0.482697 0.467989,0.957372 0.686607,1.446086 0.887842,1.94416 1.696126,3.933114 2.468308,5.935438 0.771513,2.003662 1.500239,4.025375 2.210914,6.05043 0.174493,0.505428 0.350323,1.017542 0.512113,1.516953 0.08624,0.256726 0.135717,0.454618 0.166471,0.693961 0.03075,0.233326 0.03945,0.480023 0.03878,0.735412 -0.0033,0.511445 -0.03878,1.053644 -0.06017,1.595174 -0.02273,0.543536 -0.03477,1.090414 -0.0341,1.636624 v 0.403139 l 0.393779,0.100284 c 0.59702,0.153099 1.189361,0.355003 1.771673,0.591003 0.580975,0.244692 1.153259,0.514788 1.716183,0.81029 0.560918,0.299513 1.113814,0.617745 1.656012,0.954697 0.538188,0.336284 1.079049,0.693961 1.581135,1.06033 l -0.198561,-0.359683 0.16647,1.706154 0.197224,1.703481 0.200567,1.70348 0.175161,1.704817 0.0087,0.08557 0.04279,0.06351 0.996148,1.488874 c 0.330267,0.496737 0.667888,0.989462 0.9908,1.491548 l 0.978097,1.500239 0.958709,1.51361 -0.04747,-0.287479 -6.69e-4,0.002 -0.613065,1.945497 c -0.229984,0.639808 -0.477349,1.272931 -0.710675,1.910733 -0.248703,0.632454 -0.525485,1.25421 -0.786222,1.881316 -0.12502,0.315558 -0.285473,0.61574 -0.428544,0.923944 l -0.441247,0.919264 c -0.609723,1.214766 -1.246188,2.417498 -1.946166,3.583459 -0.330266,0.595015 -0.716023,1.156602 -1.076375,1.732897 -0.357677,0.578969 -0.754131,1.131865 -1.133202,1.696794 -0.374391,0.568941 -0.784216,1.112477 -1.189361,1.660025 -0.204578,0.271433 -0.398459,0.551558 -0.612397,0.816306 -0.213269,0.265417 -0.424533,0.532171 -0.633791,0.800261 -0.2126,0.266754 -0.415841,0.540862 -0.635796,0.800262 l -0.659865,0.779536 c -0.222629,0.258062 -0.435898,0.524816 -0.665881,0.775525 l -0.691287,0.75413 c -0.231989,0.248703 -0.453281,0.50944 -0.696635,0.748114 l -0.719366,0.726721 c -0.472001,0.492725 -0.977429,0.950017 -1.480851,1.409984 l -0.377066,0.344975 -0.391105,0.328929 -0.783547,0.657859 c -0.256057,0.224635 -0.534176,0.42119 -0.802267,0.631117 l -0.811627,0.621756 0.276114,-0.03343 c -1.387254,-0.588998 -2.756456,-1.224795 -4.088888,-1.935469 -1.327083,-0.720035 -2.63411,-1.478846 -3.90704,-2.293147 -1.275604,-0.808284 -2.530484,-1.650664 -3.760626,-2.527809 -1.2268,-0.876477 -2.441566,-1.787718 -3.602847,-2.728376 l 0.186527,0.419853 0.505428,-8.380347 0.01003,-0.177836 -0.102957,-0.144408 -2.062495,-2.899527 -0.102289,-0.144408 -0.18519,-0.05148 -2.839357,-0.800929 c -0.949349,-0.260069 -1.896024,-0.528828 -2.838687,-0.808284 -1.884659,-0.56025 -3.75929,-1.157939 -5.589795,-1.835855 -0.911242,-0.344306 -1.818472,-0.712012 -2.650824,-1.159944 -0.207921,-0.111649 -0.407819,-0.230652 -0.593009,-0.357009 -0.183185,-0.125688 -0.355003,-0.264079 -0.468658,-0.395785 -0.05081,-0.06284 -0.08959,-0.125688 -0.09694,-0.151093 -0.0013,-0.0053 0,-0.0067 -0.004,-0.01003 -0.002,0.0047 -0.0033,-0.01605 -0.0047,-0.03075 l -0.0033,-0.04546 -0.01471,-0.181847 c -0.01939,-0.242686 -0.03744,-0.484703 -0.0468,-0.724715 -0.01738,-0.48136 -0.02674,-0.958709 -0.002,-1.433383 0.02474,-0.474006 0.09627,-0.944001 0.216612,-1.400625 0.02674,-0.11566 0.06084,-0.228646 0.09895,-0.339626 0.03677,-0.112986 0.0702,-0.226641 0.117666,-0.334947 0.08557,-0.22196 0.19455,-0.431887 0.302856,-0.64315 0.121677,-0.20391 0.244023,-0.407819 0.389099,-0.596352 0.0722,-0.09493 0.133043,-0.198561 0.222629,-0.279456 0.05081,-0.0361 0.158448,-0.0234 0.246697,-0.02407 0.04346,-6.69e-4 0.0809,-0.006 0.105632,-0.0234 0.02474,-0.01605 0.04011,-0.04078 0.05883,-0.06284 l 0.302187,-0.344975 -0.30553,-0.328929 C 23.55124,62.283204 23.312566,61.914161 23.07456,61.548461 22.844577,61.17407 22.613925,60.78965 22.401324,60.393197 22.190729,59.995406 21.986151,59.59093 21.797619,59.179099 c -0.09694,-0.205246 -0.185859,-0.413167 -0.277451,-0.621088 -0.08357,-0.210595 -0.167808,-0.42119 -0.243354,-0.633122 -0.08023,-0.211264 -0.144408,-0.428545 -0.20391,-0.640477 -0.03209,-0.108306 -0.05482,-0.211932 -0.07622,-0.313552 -0.0127,-0.05349 -0.0094,-0.08156 -0.01605,-0.123683 0.002,-0.0468 0.0053,-0.09828 0.01337,-0.147751 0.04747,-0.403808 0.243355,-0.812964 0.459967,-1.197383 0.437235,-0.777531 1.000828,-1.496228 1.486199,-2.259719 l 0.169814,-0.267422 -0.177168,-0.280125 c -0.333609,-0.528159 -0.496068,-1.246188 -0.591672,-1.956195 -0.100283,-0.71736 -0.131037,-1.458788 -0.128362,-2.202222 -0.0087,-0.743434 0.0234,-1.492885 0.07622,-2.240999 0.05415,-0.746777 0.133711,-1.502914 0.236,-2.234314 l 0.02407,-0.17115 -0.0702,-0.131037 c -0.252046,-0.47668 -0.499411,-0.969406 -0.735411,-1.460795 -0.24536,-0.488714 -0.486709,-0.979434 -0.710675,-1.476839 -0.220624,-0.498074 -0.433224,-1.00016 -0.601701,-1.510268 -0.07822,-0.256057 -0.153099,-0.512782 -0.194549,-0.766165 -0.02206,-0.127025 -0.03209,-0.250708 -0.03477,-0.367705 0.0033,-0.117666 0.01471,-0.196556 0.0575,-0.304193 0.08959,-0.207253 0.24536,-0.417179 0.415173,-0.613735 0.170482,-0.197224 0.360351,-0.385756 0.558244,-0.567603 0.395785,-0.364363 0.822324,-0.70399 1.257553,-1.035593 l 0.660533,-0.4954 c 0.112986,-0.08624 0.218618,-0.161791 0.346312,-0.27344 0.0067,-0.0053 0.02006,-0.02006 0.03008,-0.02942 0.01337,-0.01471 0.01538,-0.01404 0.03677,-0.04145 0.01538,-0.01939 0.02808,-0.04011 0.03945,-0.06218 0.0107,-0.01872 0.0234,-0.05415 0.02073,-0.0468 l 0.0053,-0.01471 c 0.0087,-0.02073 0.01872,-0.04613 0.03142,-0.07087 0.0234,-0.05081 0.05348,-0.100952 0.08357,-0.149757 0.252714,-0.397122 0.679921,-0.642482 1.155264,-0.667887 h 0.0107 l 0.02139,-0.004 c 1.270256,-0.221292 2.574609,-0.302856 3.876287,-0.355672 1.302346,-0.05081 2.610042,-0.04413 3.917737,-0.01671 1.307695,0.02674 2.614721,0.08089 3.921079,0.154437 1.305021,0.07287 2.614722,0.164464 3.91172,0.276113 l 0.480023,0.04078 0.05549,-0.478686 c 0.295501,-2.555889 0.585654,-5.111109 0.861768,-7.670341 l 0.201235,-1.921429 0.09293,-0.964058 0.03944,-0.488045 c 0.0053,-0.08758 0.0127,-0.161122 0.01471,-0.261406 l 0.002,-0.0722 c -6.68e-4,-0.03543 -0.004,-0.07421 -0.0107,-0.11098 l -0.01136,-0.05549 c -0.004,-0.01939 -0.01003,-0.03811 -0.01003,-0.03811 l -0.03878,-0.11098 c -0.427207,-1.177995 -0.720703,-2.405464 -0.877145,-3.65232 -0.299513,-2.498393 -0.06685,-5.058962 0.574958,-7.510556 0.320907,-1.2268 0.73608,-2.4315376 1.240171,-3.5974989 0.505428,-1.1626185 1.087072,-2.3078546 1.794404,-3.342779 l -0.05683,0.058164 c 0.480023,-0.3382893 1.044952,-0.623094 1.611888,-0.832352 0.572952,-0.2085894 1.169972,-0.3496547 1.77301,-0.3810768 0.601031,-0.036102 1.205406,0.036771 1.775015,0.2219605 0.284137,0.094935 0.562256,0.2099265 0.823661,0.3583459 0.133711,0.068861 0.260068,0.1524308 0.386425,0.233326 0.07421,0.045462 0.102289,0.072204 0.145745,0.094935 0.04212,0.0234 0.08892,0.042119 0.141734,0.062176 z M 52.048431,3.2537382 C 51.97489,3.1795285 51.893995,3.1039817 51.809088,3.0331148 51.725519,2.9629164 51.629247,2.8907124 51.56774,2.8546104 51.42868,2.7643554 51.290958,2.6727632 51.143875,2.5965479 50.855728,2.4320831 50.547524,2.3030519 50.231965,2.19742 49.599511,1.9901677 48.926944,1.9079354 48.266411,1.9460431 47.603872,1.9794709 46.95671,2.131233 46.341639,2.3531935 45.723894,2.5818396 45.147598,2.867313 44.59136,3.2550753 l -0.02808,0.020057 -0.02875,0.038108 c -0.787559,1.0596609 -1.422018,2.19888 -1.991628,3.3748697 -0.282799,0.5889976 -0.542199,1.1886922 -0.782879,1.7977465 -0.236,0.6103914 -0.445258,1.2321483 -0.636465,1.8605915 -0.757474,2.513101 -1.045621,5.196684 -0.75012,7.842159 0.08357,0.659196 0.181848,1.318392 0.33829,1.966223 0.03944,0.16179 0.07621,0.324249 0.119671,0.485371 l 0.13906,0.479355 c 0.08558,0.321575 0.207252,0.633122 0.312215,0.948681 l 0.04078,0.117665 c 0,0 0.004,0.0107 0,0.002 l -0.008,-0.01939 c -0.0053,-0.01404 -0.0094,-0.02808 -0.0127,-0.04212 -0.0074,-0.02808 -0.01003,-0.0595 -0.0094,-0.08491 l -0.0013,0.04346 c 0,0.02541 -0.002,0.06151 -0.0047,0.100284 l -0.0074,0.112317 -0.03878,0.469326 -0.09293,0.953361 -0.198561,1.914744 c -0.272103,2.553883 -0.558913,5.109103 -0.849735,7.662986 l 0.537519,-0.438572 c -1.322403,-0.08223 -2.634778,-0.133711 -3.95317,-0.172488 -1.316387,-0.03878 -2.63411,-0.05683 -3.953171,-0.04747 -1.317723,0.0067 -2.636784,0.03945 -3.957182,0.122346 -1.318392,0.08357 -2.639458,0.194549 -3.953839,0.454617 l 0.03276,-0.0047 c -0.312885,0.02607 -0.628443,0.123682 -0.907231,0.28681 -0.280125,0.163128 -0.512782,0.398459 -0.683932,0.66655 -0.04212,0.06819 -0.08223,0.137723 -0.116998,0.212601 -0.01738,0.03744 -0.03343,0.07488 -0.05014,0.119003 l -0.01137,0.0341 c -0.0047,0.01538 0.002,-0.01337 0.008,-0.02474 0.006,-0.01471 0.01538,-0.02875 0.02474,-0.04011 0.01203,-0.01404 0,-0.002 0.002,-0.004 -0.002,0.002 -6.68e-4,0.0013 -0.0067,0.0074 -0.07889,0.07087 -0.195887,0.159116 -0.301519,0.240012 l -0.660533,0.502754 c -0.439241,0.340963 -0.874471,0.693292 -1.288976,1.079049 -0.205915,0.193212 -0.40715,0.395785 -0.595683,0.617077 -0.187196,0.222629 -0.368374,0.458629 -0.496737,0.760148 -0.06752,0.146413 -0.104963,0.342969 -0.1063,0.500748 0,0.159116 0.0107,0.311547 0.03276,0.456623 0.04145,0.292159 0.100952,0.571616 0.171819,0.846392 0.138391,0.550222 0.301519,1.087072 0.483366,1.616568 0.178504,0.530833 0.369042,1.05565 0.572283,1.575118 0.212601,0.516793 0.43055,1.024896 0.664545,1.539015 l -0.04546,-0.302187 c -0.130368,0.775524 -0.220623,1.535004 -0.294164,2.308523 -0.0702,0.770845 -0.118335,1.545701 -0.126357,2.326574 0.0013,0.780873 0.04011,1.566426 0.160453,2.358665 0.06552,0.395785 0.149756,0.792239 0.273439,1.188692 0.124352,0.395117 0.289485,0.793576 0.544205,1.169973 l -0.0067,-0.547547 c -0.488046,0.789564 -0.881825,1.641304 -1.220783,2.527141 -0.157779,0.449269 -0.322912,0.898539 -0.382414,1.410652 -0.0074,0.06351 -0.01003,0.127026 -0.0107,0.19455 0.0074,0.07153 0.01003,0.159116 0.02273,0.217949 0.02273,0.123014 0.04747,0.244023 0.07755,0.35634 0.05683,0.231989 0.126357,0.453281 0.18987,0.677916 0.269428,0.891185 0.54621,1.777021 0.89787,2.646144 0.35634,0.868454 0.738754,1.728217 1.418007,2.51377 l -0.0033,-0.673236 c -0.02006,0.0254 -0.04546,0.04747 -0.06017,0.07822 -0.01538,0.03075 -0.01738,0.0722 -0.01404,0.118334 0.0087,0.0936 0.03677,0.200567 0.008,0.2594 -0.07555,0.102958 -0.155773,0.201904 -0.229983,0.306867 -0.157779,0.201235 -0.286142,0.423196 -0.426539,0.638471 l -0.188532,0.335615 c -0.06285,0.112317 -0.111649,0.23132 -0.169145,0.346312 -0.06017,0.114323 -0.108306,0.233994 -0.157779,0.352997 -0.05081,0.118335 -0.09828,0.238006 -0.137723,0.36102 -0.338958,0.975423 -0.484034,2.013022 -0.48604,3.023878 -0.0047,0.253383 0,0.505429 0.0047,0.755468 l 0.0047,0.187865 0.0013,0.04747 c 6.69e-4,0.01605 -6.68e-4,0.02674 0.004,0.06084 0.0074,0.0575 0.01538,0.118334 0.02808,0.172487 0.06151,0.213938 0.165133,0.358346 0.265416,0.490051 0.204579,0.24536 0.423196,0.417179 0.642483,0.575627 0.219954,0.157111 0.442584,0.294165 0.667218,0.421859 0.897871,0.505428 1.820478,0.89787 2.748433,1.270256 1.855911,0.741428 3.747924,1.34714 5.645954,1.924103 0.949349,0.287479 1.901373,0.563593 2.855402,0.831015 0.956034,0.263411 1.917418,0.4954 2.886824,0.724046 l -0.287479,-0.195887 2.057814,2.903538 -0.09293,-0.322912 -0.496737,8.380347 -0.01604,0.265416 0.201904,0.154437 c 1.222788,0.939989 2.464296,1.815797 3.73121,2.670211 1.266913,0.851741 2.556557,1.667379 3.866926,2.448252 1.307696,0.78689 2.654167,1.508262 4.010667,2.206903 1.355162,0.702652 2.749101,1.332431 4.163097,1.913406 l 0.149088,0.06084 0.126357,-0.09427 0.831014,-0.621088 c 0.274777,-0.209926 0.56025,-0.40715 0.822993,-0.631785 l 0.801598,-0.65719 0.400465,-0.329598 0.387094,-0.344975 c 0.511445,-0.463978 1.045621,-0.904556 1.537678,-1.389928 l 0.752794,-0.71268 c 0.25472,-0.234663 0.487377,-0.49072 0.7314,-0.735412 l 0.725383,-0.741428 c 0.242017,-0.246697 0.466652,-0.50944 0.701984,-0.763491 l 0.697303,-0.768839 c 0.231989,-0.256057 0.447933,-0.526822 0.672567,-0.790233 0.223298,-0.264079 0.44459,-0.530165 0.663876,-0.797587 0.221961,-0.265417 0.423865,-0.546879 0.635797,-0.820318 0.420522,-0.549553 0.84706,-1.095763 1.236828,-1.668047 0.397122,-0.566935 0.806947,-1.126516 1.165293,-1.719525 0.365031,-0.588329 0.754799,-1.161282 1.090414,-1.76833 0.704658,-1.192704 1.360511,-2.414824 1.962212,-3.663686 l 0.431887,-0.945338 c 0.139728,-0.317564 0.297507,-0.626437 0.419853,-0.951355 0.253382,-0.645156 0.523479,-1.284296 0.764159,-1.934132 0.220623,-0.657859 0.443921,-1.31438 0.655185,-1.974245 l 0.55089,-2.004999 6.68e-4,-0.002 0.04279,-0.15711 -0.09025,-0.131037 -1.020885,-1.47216 -1.000159,-1.485531 C 70.62158,65.773734 70.300005,65.27098 69.970407,64.772906 l -0.982109,-1.497565 0.05148,0.149088 -0.102289,-1.711503 -0.07755,-1.71284 -0.08023,-1.713509 -0.11098,-1.710834 -0.01404,-0.224635 -0.184522,-0.135048 c -0.544872,-0.401133 -1.087071,-0.760816 -1.64799,-1.113814 -0.558912,-0.350323 -1.131196,-0.682595 -1.714845,-0.995479 -0.585655,-0.31021 -1.18535,-0.596352 -1.801089,-0.857758 -0.619083,-0.253382 -1.256217,-0.474006 -1.91675,-0.644487 l 0.387094,0.493394 c 0.0013,-0.530165 0.01471,-1.06033 0.03811,-1.593169 0.02206,-0.534176 0.06017,-1.067683 0.06685,-1.632613 0.0013,-0.282799 -0.0067,-0.574958 -0.04479,-0.875139 C 61.802661,48.70283 61.71976,48.377912 61.633516,48.124529 61.465708,47.598376 61.291884,47.091611 61.117391,46.57816 60.41407,44.534385 59.670636,42.507323 58.887757,40.492296 58.10421,38.478606 57.283223,36.47695 56.375325,34.505379 56.152027,34.011316 55.90533,33.524608 55.672004,33.034556 55.425975,32.548516 55.171256,32.06515 54.911187,31.583122 54.625714,31.110453 54.375674,30.626418 54.043402,30.167789 L 53.59079,29.509262 c -0.129032,-0.195887 -0.237338,-0.40314 -0.316227,-0.62042 -0.04011,-0.108306 -0.07354,-0.218618 -0.100284,-0.330267 -0.02741,-0.11566 -0.04346,-0.211932 -0.06351,-0.353666 l -0.116998,-0.795581 c -0.07555,-0.530165 -0.147751,-1.060998 -0.215275,-1.593169 -0.136385,-1.063672 -0.258062,-2.12935 -0.366368,-3.195696 -0.107638,-1.067015 -0.202573,-2.134699 -0.282799,-3.20372 l -0.123015,-1.602528 -0.10162,-1.603197 c -0.02139,-0.534176 -0.04947,-1.069021 -0.08223,-1.603865 -0.02741,-0.534176 -0.04145,-1.069689 -0.06218,-1.603866 -0.0254,-0.535513 -0.02072,-1.069689 -0.03142,-1.605202 -0.0027,-0.267422 -0.0094,-0.534845 -0.0074,-0.802267 0.004,-0.266754 0.0053,-0.534176 0.0047,-0.802267 0,-0.534176 -0.0013,-1.0696892 0.02273,-1.6038653 l 0.02607,-0.8015984 0.01203,-0.4011335 0.02674,-0.3997964 0.04747,-0.8002613 0.02206,-0.4011334 0.01137,-0.2005668 0.02006,-0.215275 c 0.05816,-0.5823121 0.09962,-1.1592757 0.133711,-1.7161827"
         style="fill:#1a1a1a;fill-opacity:1;fill-rule:nonzero;stroke:none;stroke-width:0.0668556"
         id="path8924" />
      <path
         d="m 40.937034,20.225696 c 0.740091,0.37506 1.512942,0.636465 2.295152,0.814301 0.78221,0.177836 1.575786,0.274776 2.367356,0.294833 0.79157,0.01805 1.58314,-0.03945 2.352648,-0.198561 0.766834,-0.160454 1.519627,-0.423196 2.170132,-0.844386 -0.697304,0.33762 -1.455446,0.50008 -2.211582,0.562924 -0.756806,0.06217 -1.517622,0.0234 -2.263062,-0.08624 -0.74544,-0.11098 -1.47684,-0.294164 -2.176818,-0.54621 -0.69864,-0.252046 -1.366528,-0.576964 -1.960874,-0.97676 L 40.937034,20.2257"
         style="fill:#1a1a1a;fill-opacity:1;fill-rule:nonzero;stroke:none;stroke-width:0.0668556"
         id="path8926" />
      <path
         d="m 50.943977,21.334161 c -0.499411,0.219287 -0.997485,0.341632 -1.506256,0.429882 -0.508102,0.08825 -1.022222,0.139059 -1.538347,0.17115 -0.517462,0.03142 -1.036261,0.04412 -1.559072,0.04145 -0.524148,0 -1.048296,-0.02273 -1.5925,-0.04546 0.485372,0.253382 1.016873,0.399127 1.553724,0.490051 0.538187,0.08758 1.086403,0.114323 1.632613,0.08089 0.545542,-0.03543 1.091752,-0.129031 1.615231,-0.306867 0.517462,-0.181178 1.033587,-0.445927 1.394607,-0.8611"
         style="fill:#1a1a1a;fill-opacity:1;fill-rule:nonzero;stroke:none;stroke-width:0.0668556"
         id="path8928" />
      <path
         d="m 41.921148,21.457176 c 2.562575,2.186177 5.533636,2.589985 6.668176,2.623412 -2.608705,0.183185 -4.713319,0.992806 -6.91621,0.195887 l 0.248034,-2.819299"
         style="fill:#1a1a1a;fill-opacity:1;fill-rule:nonzero;stroke:none;stroke-width:0.0668556"
         id="path8930" />
      <path
         d="m 40.572671,33.92641 c 0.475343,0.06686 0.951355,0.106969 1.426698,0.153099 0.476012,0.04212 0.951355,0.07889 1.428035,0.116329 l 2.856739,0.194549 0.270097,0.01872 0.10162,-0.104295 c 0.008,-0.0074 0.04747,-0.03543 0.07688,-0.05549 0.03075,-0.02139 0.06619,-0.04279 0.09895,-0.06418 0.0702,-0.04145 0.141066,-0.08424 0.215944,-0.123014 0.146414,-0.0829 0.301519,-0.159117 0.458629,-0.231989 0.316896,-0.141734 0.646494,-0.270765 0.984114,-0.388431 0.337621,-0.11566 0.683933,-0.219955 1.036262,-0.316896 0.176499,-0.05081 0.355003,-0.08825 0.533507,-0.139728 0.179173,-0.04212 0.359683,-0.08691 0.541531,-0.133711 -0.184522,-0.02674 -0.37038,-0.05415 -0.556907,-0.0722 -0.186527,-0.01538 -0.374392,-0.02808 -0.562256,-0.03343 -0.188533,-0.0047 -0.377065,-0.006 -0.566267,0.0033 -0.189201,0.004 -0.379071,0.01671 -0.567603,0.03811 -0.37974,0.04011 -0.760148,0.100283 -1.136545,0.199898 -0.188533,0.04947 -0.377066,0.102289 -0.56493,0.170482 -0.09427,0.03276 -0.187864,0.07154 -0.282799,0.11098 -0.04747,0.02139 -0.09427,0.04078 -0.143071,0.06485 -0.05081,0.02474 -0.09092,0.04279 -0.160453,0.08424 l 0.371717,-0.08557 c -0.48604,-0.09627 -0.961384,-0.179173 -1.444749,-0.249372 -0.481361,-0.0722 -0.964726,-0.127025 -1.448761,-0.178504 -0.484034,-0.04479 -0.968737,-0.08357 -1.454777,-0.103626 -0.486709,-0.01939 -0.973418,-0.02942 -1.461463,-0.0087 l -0.05014,1.134539"
         style="fill:#1a1a1a;fill-opacity:1;fill-rule:nonzero;stroke:none;stroke-width:0.0668556"
         id="path8932" />
      <path
         d="m 46.872472,42.066745 c -0.992805,0.507434 -1.87931,1.081055 -2.785203,1.508262 -0.114323,0.04881 -0.225972,0.104295 -0.338289,0.151762 l -0.338958,0.135717 c -0.221961,0.09026 -0.422527,0.233326 -0.639139,0.379071 -0.213938,0.153099 -0.457293,0.262074 -0.710675,0.296839 -0.253383,0.02006 -0.510108,0.01003 -0.765497,-0.02072 -0.24536,-0.02942 -0.538856,-0.06953 -0.799592,-0.09627 -0.268091,-0.02808 -0.536182,-0.05683 -0.803604,-0.07889 l -1.60186,-0.151093 c -1.067684,-0.09761 -2.13403,-0.20859 -3.203051,-0.295502 -2.136704,-0.178505 -4.27742,-0.297507 -6.422147,-0.395785 -2.146064,-0.08892 -4.290123,-0.157111 -6.464935,-0.08624 l 0.06752,1.133871 c 2.10127,-0.147751 4.241986,-0.162459 6.374679,-0.154437 2.136036,0.0107 4.27274,0.07287 6.410782,0.127695 1.06902,0.02674 2.138041,0.05415 3.206393,0.104294 1.067684,0.06017 2.133362,0.116329 3.185669,0.286811 0.137054,0.02474 0.27745,0.02875 0.41651,0.04212 0.13906,0.006 0.279456,0.0047 0.419853,0.0067 0.140397,-0.002 0.283468,0.01671 0.427876,0.02474 0.07287,0.0067 0.147082,0.01538 0.22196,0.0254 l 0.225304,0.01738 c 0.306198,0.02875 0.612397,-0.0047 0.886504,-0.113654 0.269428,-0.119003 0.524148,-0.260737 0.764828,-0.417179 0.956704,-0.635796 1.708829,-1.466143 2.265067,-2.430869"
         style="fill:#1a1a1a;fill-opacity:1;fill-rule:nonzero;stroke:none;stroke-width:0.0668556"
         id="path8934" />
      <path
         d="m 26.774348,43.351041 c -0.400465,-0.02942 -0.817644,-0.0829 -1.21276,-0.244023 -0.393111,-0.155105 -0.785553,-0.359683 -1.137882,-0.634459 -0.355672,-0.270097 -0.687276,-0.584987 -0.987457,-0.933304 -0.298176,-0.350324 -0.572953,-0.728058 -0.799593,-1.138551 0.139728,0.448601 0.336284,0.881825 0.566267,1.300341 0.233326,0.417179 0.509439,0.816307 0.83302,1.186687 0.320907,0.374391 0.709338,0.698641 1.139219,0.978097 0.429882,0.285473 0.926619,0.468657 1.440738,0.609723 l 0.158448,-1.124511"
         style="fill:#1a1a1a;fill-opacity:1;fill-rule:nonzero;stroke:none;stroke-width:0.0668556"
         id="path8936" />
      <path
         d="m 23.591354,34.643102 0.516793,-0.763491 c -0.156442,0.832352 -0.362357,2.539175 -0.332272,3.445068 0.0341,0.909904 0.116329,1.826494 0.243354,2.738404 -0.311547,-0.868454 -0.580975,-1.753621 -0.806278,-2.659515 -0.108974,-0.45328 -0.210595,-0.911241 -0.28681,-1.379899 -0.04078,-0.260068 -0.07555,-0.52281 -0.100284,-0.790901 0.374392,-0.06752 0.628443,-0.296839 0.765497,-0.589666"
         style="fill:#1a1a1a;fill-opacity:1;fill-rule:nonzero;stroke:none;stroke-width:0.0668556"
         id="path8938" />
      <path
         d="m 26.278948,33.859554 c 0.179842,0.06485 0.343638,0.170482 0.512114,0.263411 l 0.496737,0.292828 c 0.330266,0.199229 0.658527,0.401802 0.984114,0.605043 v 0 l -0.135717,-0.356341 c -0.31489,0.568941 -0.529496,1.159945 -0.708001,1.76833 -0.173155,0.607718 -0.302855,1.226132 -0.41183,1.84722 -0.103626,0.621757 -0.187196,1.246857 -0.229983,1.874631 -0.04947,0.627105 -0.05415,1.256884 -0.03543,1.882653 0.125689,-0.615072 0.244692,-1.225463 0.389768,-1.829169 0.135717,-0.605043 0.291491,-1.204069 0.455956,-1.798415 0.158447,-0.595683 0.348986,-1.181338 0.531501,-1.767662 0.179173,-0.584986 0.359683,-1.177326 0.51412,-1.761644 l 0.07555,-0.286811 -0.211264,-0.0702 v 0 c -0.368374,-0.122346 -0.73608,-0.242017 -1.105791,-0.358346 L 26.844546,33.99594 C 26.657351,33.9458 26.472829,33.880279 26.278948,33.859554"
         style="fill:#1a1a1a;fill-opacity:1;fill-rule:nonzero;stroke:none;stroke-width:0.0668556"
         id="path8940" />
      <path
         d="m 25.721373,34.290773 c -0.31957,0.540861 -0.469327,1.162618 -0.572953,1.77301 -0.106969,0.614402 -0.142402,1.234822 -0.141065,1.852568 0.0013,0.617745 0.03811,1.234154 0.121009,1.845214 0.07889,0.610391 0.189869,1.218777 0.377065,1.813123 0.04814,-0.62042 0.06151,-1.230811 0.06552,-1.839865 0.0074,-0.609055 0.004,-1.214766 0.0033,-1.819141 -0.0033,-0.604374 -0.0013,-1.207412 0.01337,-1.80978 0.02006,-0.602369 0.03878,-1.202064 0.133712,-1.815129"
         style="fill:#1a1a1a;fill-opacity:1;fill-rule:nonzero;stroke:none;stroke-width:0.0668556"
         id="path8942" />
      <path
         d="m 47.751623,37.437665 c 0.37506,-0.06752 0.744771,-0.145745 1.115151,-0.222629 l 1.102449,-0.241349 c 0.365031,-0.07889 0.7314,-0.157111 1.09242,-0.227309 0.18051,-0.03209 0.36102,-0.07087 0.534845,-0.09226 0.08892,-0.01404 0.174493,-0.0234 0.253382,-0.02808 0.09025,-0.0127 0.142403,-0.0033 0.201904,-0.0053 l -0.244023,-0.101621 c 0.295502,0.294165 0.599026,0.613066 0.885837,0.931967 0.28681,0.320907 0.566266,0.647831 0.835026,0.980771 0.53217,0.668556 1.014868,1.373882 1.357168,2.121996 l 0.01203,-0.381076 c -0.271433,0.560918 -0.650505,1.080386 -1.089746,1.552386 -0.437235,0.476012 -0.939989,0.901882 -1.478177,1.283627 -0.534844,0.3891 -1.113814,0.722041 -1.715514,1.015537 -0.605711,0.280793 -1.232148,0.531501 -1.909395,0.637133 0.340963,0.02741 0.689949,0.0047 1.031581,-0.05148 0.172488,-0.02474 0.339627,-0.06686 0.511446,-0.09961 l 0.502085,-0.13906 c 0.665882,-0.200567 1.305021,-0.488046 1.917418,-0.830346 0.608386,-0.348986 1.184012,-0.763491 1.708829,-1.249531 0.520136,-0.490051 0.982777,-1.058992 1.330426,-1.71284 l 0.09627,-0.181847 -0.08557,-0.198561 C 55.531606,39.762953 55.31232,39.349785 55.067628,38.957343 54.81692,38.570249 54.551503,38.195858 54.264693,37.841524 53.977214,37.487858 53.675027,37.148231 53.356794,36.825319 53.035887,36.501738 52.713643,36.196208 52.352623,35.8987 l -0.127025,-0.104963 -0.116329,0.0027 c -0.1297,0.004 -0.265417,0.01137 -0.360352,0.03343 -0.108306,0.01738 -0.20792,0.04078 -0.302855,0.06619 -0.195219,0.04881 -0.379072,0.104963 -0.562924,0.165802 -0.367038,0.118334 -0.720704,0.258731 -1.073701,0.401133 -0.353666,0.138392 -0.697972,0.299513 -1.042278,0.455956 -0.34297,0.163796 -0.683265,0.331603 -1.015537,0.518799"
         style="fill:#1a1a1a;fill-opacity:1;fill-rule:nonzero;stroke:none;stroke-width:0.0668556"
         id="path8944" />
      <path
         d="m 45.540709,49.435567 c 0.753463,-0.381077 1.529656,-0.705995 2.315209,-1.002833 0.784884,-0.295502 1.584477,-0.566267 2.381396,-0.802936 v 0 l -0.231989,-0.02474 1.132533,0.888511 c 0.374392,0.298176 0.748114,0.596352 1.10646,0.90723 0.361689,0.30553 0.714018,0.621757 1.042947,0.948681 0.32425,0.328929 0.637803,0.667887 0.878483,1.025565 l -0.03677,-0.433893 c -0.173156,0.397122 -0.411162,0.783547 -0.679921,1.155933 -0.274777,0.37038 -0.584318,0.724714 -0.908568,1.068352 -0.324249,0.344306 -0.67123,0.672567 -1.024227,0.994811 -0.354335,0.31957 -0.722709,0.636465 -1.091752,0.933972 v 0 l 0.26876,0.0107 c -0.201236,-0.185858 -0.417179,-0.35166 -0.636465,-0.514119 -0.221292,-0.159785 -0.445259,-0.31489 -0.675242,-0.461972 -0.228646,-0.149757 -0.461972,-0.294165 -0.697972,-0.434561 -0.236,-0.139729 -0.47668,-0.274108 -0.724046,-0.399128 0.184522,0.206584 0.375728,0.404476 0.571615,0.59702 0.196556,0.191876 0.395117,0.380408 0.599026,0.562924 0.200567,0.18519 0.409156,0.362357 0.619752,0.534845 0.213269,0.169813 0.428544,0.336283 0.659864,0.483366 l 0.14842,0.09427 0.12034,-0.08424 v 0 c 0.440578,-0.244023 0.851071,-0.514788 1.255547,-0.806278 0.401802,-0.292159 0.793576,-0.600363 1.163287,-0.940658 0.368375,-0.340295 0.729395,-0.695967 1.049633,-1.098438 0.320907,-0.401133 0.61574,-0.836363 0.8377,-1.331763 l 0.09895,-0.22196 -0.135049,-0.211932 C 54.655803,50.416341 54.310828,50.033927 53.947802,49.678924 53.588788,49.319909 53.199688,49.006356 52.806578,48.701495 52.410124,48.401313 52.003642,48.12052 51.584458,47.859783 51.163936,47.599046 50.74074,47.353018 50.289465,47.137074 l -0.136385,-0.06485 -0.09627,0.04078 v 0 c -0.788228,0.330267 -1.554393,0.687276 -2.311866,1.069021 -0.7548,0.383083 -1.496228,0.793576 -2.204229,1.253542"
         style="fill:#1a1a1a;fill-opacity:1;fill-rule:nonzero;stroke:none;stroke-width:0.0668556"
         id="path8946" />
      <path
         d="m 47.844553,57.70226 c 0.333609,0.328929 0.647162,0.678584 0.9674,1.020216 l 0.954029,1.034256 1.900704,2.075197 -0.02942,-0.286142 v 0 c -0.630449,0.705995 -1.248863,1.424024 -1.895356,2.08322 -0.324918,0.328261 -0.657859,0.643819 -1.001497,0.91659 -0.340963,0.28213 -0.659864,0.544204 -1.010188,0.74544 h -6.68e-4 l 0.131037,0.01738 -0.205247,-0.0956 -0.223297,-0.106301 -0.447933,-0.215275 -0.894527,-0.432555 -1.789724,-0.869792 -3.576774,-1.742924 3.454428,1.973576 1.728885,0.985451 0.86578,0.49072 0.433893,0.24536 0.217949,0.121678 0.109643,0.06151 0.129031,0.06752 0.04814,0.02474 0.08357,-0.0074 h 6.68e-4 c 0.296839,0.04011 0.582981,-0.03209 0.837701,-0.128362 0.25472,-0.100952 0.480023,-0.240012 0.687944,-0.39378 0.206583,-0.155105 0.393111,-0.328929 0.571615,-0.504759 0.177836,-0.176499 0.35166,-0.355004 0.510108,-0.544873 0.323581,-0.373723 0.617077,-0.766834 0.887842,-1.172647 0.270765,-0.407151 0.518131,-0.823661 0.732069,-1.268919 v -6.69e-4 l 0.09962,-0.165802 -0.129032,-0.12034 -2.0645,-1.914075 -1.035593,-0.95336 c -0.347649,-0.31489 -0.688612,-0.637803 -1.048295,-0.939321"
         style="fill:#1a1a1a;fill-opacity:1;fill-rule:nonzero;stroke:none;stroke-width:0.0668556"
         id="path8948" />
      <path
         d="m 60.700881,53.069168 c -0.08959,1.447423 -0.18519,2.889498 -0.350324,4.319539 -0.08691,0.714686 -0.192544,1.425361 -0.309541,2.134699 -0.131706,0.705995 -0.268091,1.41199 -0.438573,2.112636 -0.33762,1.401293 -0.750119,2.792558 -1.192703,4.180479 l -1.335775,4.1758 c 0.657191,-1.309701 1.283627,-2.632104 1.86126,-3.980581 0.574289,-1.349146 1.105791,-2.724365 1.531661,-4.142372 0.43055,-1.415333 0.759479,-2.87011 0.964726,-4.336922 0.217281,-1.465474 0.341632,-2.936965 0.403808,-4.405782 l -1.134539,-0.0575"
         style="fill:#1a1a1a;fill-opacity:1;fill-rule:nonzero;stroke:none;stroke-width:0.0668556"
         id="path8950" />
      <path
         d="m 54.473952,33.036562 c 0.133042,0.37506 0.283467,0.732737 0.400465,1.125179 l 0.190538,0.575627 0.175162,0.586992 c 0.235331,0.781542 0.45796,1.574449 0.673235,2.37003 0.429213,1.591832 0.855083,3.191686 1.261565,4.798225 0.401134,1.607208 0.79625,3.218428 1.177996,4.834327 0.381076,1.616568 0.764159,3.232468 1.095763,4.865081 -0.08624,-1.664704 -0.277451,-3.32406 -0.496737,-4.976061 -0.225304,-1.651333 -0.48604,-3.297986 -0.784216,-4.938622 -0.302856,-1.640636 -0.62978,-3.278597 -1.042279,-4.901182 -0.09962,-0.407151 -0.207252,-0.811627 -0.324249,-1.215435 -0.112318,-0.405145 -0.227978,-0.808284 -0.362358,-1.210086 l -0.196555,-0.602369 -0.222629,-0.599694 c -0.140397,-0.398459 -0.334278,-0.797587 -0.516794,-1.192035 l -1.028907,0.480023"
         style="fill:#1a1a1a;fill-opacity:1;fill-rule:nonzero;stroke:none;stroke-width:0.0668556"
         id="path8952" />
      <path
         d="m 55.619188,42.447153 c 0.07287,1.167299 0.219286,2.319889 0.391774,3.467799 0.167139,1.147911 0.371717,2.289135 0.59702,3.426349 0.22664,1.136545 0.476012,2.269078 0.761485,3.394258 0.280793,1.125848 0.588329,2.246347 0.969406,3.352138 -0.0722,-1.167298 -0.217949,-2.319888 -0.390437,-3.467799 -0.167807,-1.148578 -0.372385,-2.289803 -0.597689,-3.426348 -0.228646,-1.136545 -0.477348,-2.269078 -0.762822,-3.394258 -0.281462,-1.125848 -0.588329,-2.246347 -0.968737,-3.352139"
         style="fill:#1a1a1a;fill-opacity:1;fill-rule:nonzero;stroke:none;stroke-width:0.0668556"
         id="path8954" />
      <path
         d="m 45.70718,52.635944 c -0.824998,0.619751 -1.609883,1.240171 -2.452932,1.604534 -0.107637,0.03878 -0.210595,0.08491 -0.316227,0.122345 -0.107637,0.03008 -0.211932,0.06819 -0.319569,0.09493 -0.215275,0.05415 -0.429882,0.07421 -0.645157,0.150425 -0.05415,0.01738 -0.108974,0.03945 -0.163796,0.06418 l -0.169813,0.06284 c -0.114323,0.04546 -0.234663,0.07956 -0.355672,0.103626 -0.242685,0.04747 -0.491388,0.0341 -0.733405,-0.01605 -0.24068,-0.05415 -0.49072,-0.09025 -0.744103,-0.130369 l -0.750788,-0.108974 -1.497565,-0.205915 -2.996467,-0.395785 -5.992934,-0.778868 -5.991597,-0.793576 -0.123015,1.129191 c 2.007673,0.163128 4.013341,0.344306 6.019677,0.521474 2.006336,0.174493 4.010666,0.371048 6.014996,0.562255 2.003662,0.197224 4.008661,0.383083 6.004968,0.619751 0.256726,0.01337 0.508771,0.05616 0.769508,0.121677 0.130369,0.03142 0.262074,0.07688 0.399797,0.107638 0.135716,0.03811 0.276782,0.06552 0.419184,0.0722 0.285473,0.02474 0.562256,-0.0702 0.829009,-0.161122 0.133711,-0.04613 0.260737,-0.110312 0.3891,-0.16647 0.12502,-0.06218 0.244691,-0.13438 0.365031,-0.20391 0.468658,-0.294833 0.861769,-0.667219 1.197384,-1.070358 0.340963,-0.399128 0.611728,-0.844386 0.844386,-1.305689"
         style="fill:#1a1a1a;fill-opacity:1;fill-rule:nonzero;stroke:none;stroke-width:0.0668556"
         id="path8956" />
      <path
         d="M 25.534177,52.902029 C 25.378403,52.792386 25.221293,52.609202 25.086913,52.394595 24.951196,52.179989 24.83353,51.935966 24.729904,51.680578 24.522652,51.169132 24.372227,50.614231 24.247876,50.052644 24.12553,49.48972 24.032601,48.915431 23.960397,48.337799 c -0.06886,-0.57897 -0.124352,-1.16195 -0.135049,-1.747605 -0.08424,0.581643 -0.123683,1.169304 -0.149088,1.75897 -0.02206,0.590335 -0.02273,1.182675 0.0087,1.779027 0.03476,0.596352 0.09427,1.196046 0.23132,1.802426 0.06819,0.303525 0.155773,0.609055 0.285473,0.915253 0.130369,0.304862 0.299513,0.618414 0.576964,0.903888 l 0.755468,-0.847729"
         style="fill:#1a1a1a;fill-opacity:1;fill-rule:nonzero;stroke:none;stroke-width:0.0668556"
         id="path8958" />
      <path
         d="m 25.792239,44.20345 c 0.289485,0.380408 0.464647,0.934641 0.552228,1.506924 0.08892,0.576964 0.09828,1.18535 0.06217,1.792398 -0.03477,0.608386 -0.114323,1.220115 -0.230652,1.826495 -0.119671,0.605711 -0.269428,1.208749 -0.496736,1.789724 0.312884,-0.540193 0.556907,-1.122505 0.770176,-1.714846 0.211263,-0.593009 0.387094,-1.201395 0.520136,-1.825157 0.132374,-0.623763 0.223966,-1.264239 0.223966,-1.928784 -0.0053,-0.660533 -0.07956,-1.363185 -0.441246,-2.053135 l -0.960047,0.606381"
         style="fill:#1a1a1a;fill-opacity:1;fill-rule:nonzero;stroke:none;stroke-width:0.0668556"
         id="path8960" />
      <path
         d="m 23.890198,53.460273 c 0.315559,0.600363 0.627106,1.194041 0.891854,1.814461 0.270765,0.617745 0.473337,1.266244 0.596351,1.932794 0.119003,0.665882 0.173156,1.350483 0.113655,2.033079 -0.06218,0.681258 -0.231989,1.359842 -0.56961,1.978925 0.214607,-0.276782 0.406482,-0.580975 0.545542,-0.909905 0.08023,-0.160453 0.128363,-0.332272 0.19455,-0.500079 0.0488,-0.171819 0.09895,-0.344975 0.138391,-0.520137 0.15243,-0.702652 0.196555,-1.432715 0.135048,-2.154755 -0.06084,-0.721372 -0.198561,-1.442075 -0.431887,-2.131356 -0.234663,-0.689281 -0.558244,-1.349146 -0.97208,-1.94416 l -0.641814,0.401133"
         style="fill:#1a1a1a;fill-opacity:1;fill-rule:nonzero;stroke:none;stroke-width:0.0668556"
         id="path8962" />
      <path
         d="m 23.559932,55.30883 c -0.21327,0.609054 -0.361689,1.238834 -0.493395,1.871288 -0.125688,0.633122 -0.229983,1.272261 -0.298175,1.918086 -0.07354,0.645825 -0.111649,1.296998 -0.105632,1.959537 0.0027,0.330935 0.01738,0.665213 0.0595,1.003502 0.04078,0.338958 0.100952,0.683265 0.215944,1.040273 l 0.107637,0.334278 0.408488,0.0234 2.496387,0.141733 c 0.835695,0.0468 1.673395,0.08892 2.508422,0.165802 0.835026,0.07555 1.664035,0.195219 2.491707,0.325587 0.411162,0.07889 0.827004,0.140397 1.234154,0.233995 l 0.61574,0.127694 0.609054,0.148419 c 1.632613,0.405145 3.241827,0.937315 4.873103,1.429372 0.40782,0.124352 0.822324,0.232658 1.240171,0.33829 0.415842,0.108306 0.82901,0.265416 1.274268,0.341632 0.443921,0.07287 0.92127,0.03209 1.357837,-0.127695 0.437235,-0.157779 0.824998,-0.439909 1.079049,-0.813632 -0.43991,0.112986 -0.827004,0.209927 -1.216772,0.24536 -0.386425,0.04413 -0.76817,0.03209 -1.168635,0.04011 -0.399797,0.0053 -0.822324,0.0053 -1.229474,-0.08558 -0.405814,-0.09427 -0.806279,-0.225303 -1.207412,-0.353666 -0.799593,-0.264079 -1.595174,-0.558244 -2.39343,-0.849066 -0.800261,-0.288147 -1.599854,-0.574958 -2.417498,-0.835026 -0.816306,-0.272771 -1.649996,-0.478017 -2.486359,-0.675241 -0.838369,-0.182516 -1.680749,-0.344975 -2.528478,-0.48136 -0.846392,-0.136386 -1.696126,-0.266086 -2.551877,-0.341632 -0.857757,-0.07688 -1.70816,-0.102289 -2.584637,-0.0702 l 0.516125,0.357678 c -0.206584,-0.496069 -0.301519,-1.113814 -0.377734,-1.720863 -0.0702,-0.614403 -0.102958,-1.242177 -0.121677,-1.873293 -0.0127,-0.630448 -0.01738,-1.266245 -6.69e-4,-1.90271 0.01404,-0.637134 0.04078,-1.274936 0.09427,-1.916081"
         style="fill:#1a1a1a;fill-opacity:1;fill-rule:nonzero;stroke:none;stroke-width:0.0668556"
         id="path8964" />
      <path
         d="m 25.654517,62.435635 c -0.331604,0.119003 -0.61574,0.318901 -0.8377,0.542867 -0.223967,0.224635 -0.393111,0.472669 -0.532171,0.724715 -0.274776,0.505428 -0.435898,1.02757 -0.556907,1.547038 -0.116997,0.520805 -0.18987,1.042278 -0.23132,1.563083 -0.03878,0.520805 -0.0575,1.042947 -0.01738,1.559072 0.05482,-0.513451 0.167139,-1.016873 0.297508,-1.510936 0.132374,-0.493394 0.294833,-0.97676 0.491388,-1.436726 0.19923,-0.456624 0.435899,-0.895196 0.726052,-1.251537 0.290153,-0.35634 0.644488,-0.60638 0.97208,-0.645825 L 25.65452,62.435635"
         style="fill:#1a1a1a;fill-opacity:1;fill-rule:nonzero;stroke:none;stroke-width:0.0668556"
         id="path8966" />
      <path
         d="m 47.538354,69.085759 c 0.385757,0.455955 0.757474,0.923276 1.109134,1.401962 0.173825,0.24068 0.344306,0.483366 0.499411,0.732068 0.07488,0.125689 0.151094,0.250709 0.212601,0.378403 0.06686,0.126357 0.114323,0.256057 0.139728,0.367706 l 0.04212,-0.161122 c -0.657859,0.657859 -1.348477,1.292987 -2.063832,1.876636 -0.358346,0.290153 -0.726051,0.568272 -1.10178,0.810958 -0.188532,0.119672 -0.379071,0.230652 -0.567603,0.31957 -0.18519,0.08892 -0.37974,0.154436 -0.512783,0.163127 h -6.68e-4 l 0.301518,0.05817 -1.25889,-0.834358 c -0.423866,-0.282804 -0.84773,-0.568946 -1.26424,-0.868459 -0.209258,-0.149088 -0.413168,-0.304193 -0.621089,-0.457292 -0.199229,-0.161791 -0.41183,-0.312216 -0.607717,-0.480023 -0.407819,-0.320907 -0.794244,-0.667887 -1.190698,-1.018211 0.265417,0.45395 0.556239,0.901214 0.887842,1.315718 0.326924,0.417848 0.679922,0.818312 1.056319,1.194709 0.375059,0.378403 0.767502,0.741429 1.186686,1.071695 0.422527,0.330935 0.849066,0.635797 1.341123,0.897202 l 0.16647,0.08892 0.136386,-0.03075 h 6.68e-4 c 0.331604,-0.06753 0.570947,-0.19923 0.796919,-0.332273 0.223298,-0.136385 0.425201,-0.284136 0.618414,-0.437235 0.383751,-0.308204 0.734074,-0.636465 1.073032,-0.974086 0.675241,-0.676578 1.300341,-1.383242 1.899367,-2.11999 l 0.06752,-0.0829 -0.02607,-0.07822 c -0.05616,-0.175162 -0.133712,-0.317564 -0.218618,-0.448601 -0.0829,-0.132374 -0.174493,-0.254052 -0.266085,-0.376397 -0.185859,-0.240012 -0.383751,-0.466652 -0.58365,-0.690618 -0.403139,-0.44459 -0.820986,-0.871797 -1.251536,-1.286302"
         style="fill:#1a1a1a;fill-opacity:1;fill-rule:nonzero;stroke:none;stroke-width:0.0668556"
         id="path8968" />
      <path
         d="m 41.671777,75.33475 c -0.424533,-0.415841 -0.854414,-0.788227 -1.238834,-1.210754 -0.100952,-0.100952 -0.195887,-0.205915 -0.288816,-0.313553 l -0.283468,-0.316227 c -0.178504,-0.219286 -0.366368,-0.43055 -0.536182,-0.65719 -0.350323,-0.44459 -0.683932,-0.903219 -1.004839,-1.375888 -0.31957,-0.475343 -0.626437,-0.960046 -0.939321,-1.461463 0.09226,0.586992 0.298176,1.148579 0.554901,1.681418 0.253383,0.535513 0.575627,1.039604 0.943333,1.506925 0.179841,0.236668 0.384419,0.454618 0.588329,0.67123 0.105632,0.104963 0.215943,0.205246 0.326255,0.30553 l 0.165133,0.149088 0.177836,0.136385 c 0.458629,0.378403 0.988126,0.669224 1.535673,0.884499"
         style="fill:#1a1a1a;fill-opacity:1;fill-rule:nonzero;stroke:none;stroke-width:0.0668556"
         id="path8970" />
      <path
         d="m 45.370896,33.738546 c 0,0 -1.629939,-2.591323 -4.52278,-2.431538 l -0.425201,2.039095 4.947981,0.392443"
         style="fill:#1a1a1a;fill-opacity:1;fill-rule:nonzero;stroke:none;stroke-width:0.0668556"
         id="path8976" />
      <path
         d="m 42.55427,32.631417 c 0.09694,-0.350992 0.284137,-0.727389 0.486041,-1.091751 0.204578,-0.367038 0.439241,-0.727389 0.686606,-1.081055 0.493395,-0.709338 1.036262,-1.393939 1.609883,-2.055809 -0.702652,0.524147 -1.385248,1.079717 -2.037758,1.682086 -0.326924,0.302187 -0.646494,0.615071 -0.94935,0.956703 -0.302187,0.343638 -0.597688,0.69931 -0.843717,1.151922 l 1.048295,0.437904"
         style="fill:#1a1a1a;fill-opacity:1;fill-rule:nonzero;stroke:none;stroke-width:0.0668556"
         id="path8978" />
      <path
         d="m 42.682633,33.346772 c 0.371717,-0.405145 0.854414,-0.79625 1.345803,-1.148579 0.4954,-0.355003 1.017542,-0.679921 1.559072,-0.97208 0.54153,-0.290822 1.103786,-0.548216 1.688104,-0.750788 0.583649,-0.201236 1.192703,-0.348986 1.821814,-0.367037 -0.6251,-0.07688 -1.267582,-0.02273 -1.892681,0.09226 -0.627774,0.11566 -1.244183,0.292159 -1.84722,0.506766 -0.603037,0.215275 -1.194041,0.469326 -1.769667,0.761485 -0.578301,0.298844 -1.136545,0.615071 -1.688772,1.056318 l 0.783547,0.821655"
         style="fill:#1a1a1a;fill-opacity:1;fill-rule:nonzero;stroke:none;stroke-width:0.0668556"
         id="path8980" />
      <path
         d="m 60.538421,56.937432 c 0.261406,0.812964 0.44459,1.668047 0.581644,2.533826 0.136385,0.867117 0.225972,1.747605 0.285473,2.632773 0.116998,1.770336 0.116329,3.558054 0.05215,5.343767 0.252045,-1.769668 0.443252,-3.552037 0.516125,-5.351121 0.0341,-0.899876 0.03878,-1.803764 -0.0067,-2.712331 -0.0468,-0.908567 -0.141065,-1.822483 -0.330266,-2.737736 l -1.098438,0.290822"
         style="fill:#1a1a1a;fill-opacity:1;fill-rule:nonzero;stroke:none;stroke-width:0.0668556"
         id="path8982" />
      <path
         d="m 44.280482,76.770808 c -1.191367,-0.279456 -2.374042,-0.586992 -3.5507,-0.914584 -1.174653,-0.327592 -2.348637,-0.672567 -3.505238,-1.036262 l -0.260069,1.105123 c 1.22212,0.18519 2.436218,0.344306 3.656332,0.488046 1.218109,0.143739 2.43956,0.265416 3.659675,0.357677"
         style="fill:#1a1a1a;fill-opacity:1;fill-rule:nonzero;stroke:none;stroke-width:0.0668556"
         id="path8984" />
      <path
         d="m 51.449405,74.488359 c -0.766833,0.493394 -1.489542,0.9674 -2.234313,1.38859 -0.741428,0.425202 -1.496897,0.804273 -2.271084,1.155265 -0.774188,0.350991 -1.566426,0.675241 -2.372705,1.000159 -0.804941,0.328929 -1.62459,0.649168 -2.442234,1.05565 0.910573,0.05749 1.809112,-0.02875 2.695617,-0.19923 0.884499,-0.174493 1.757633,-0.44459 2.589317,-0.822992 0.831014,-0.378403 1.621247,-0.866449 2.317214,-1.463469 0.692624,-0.599026 1.298335,-1.302347 1.718188,-2.113973"
         style="fill:#1a1a1a;fill-opacity:1;fill-rule:nonzero;stroke:none;stroke-width:0.0668556"
         id="path8986" />
      <path
         d="m 53.890971,73.567089 c -0.434561,0.588329 -0.882493,1.119831 -1.353825,1.636624 -0.467989,0.5188 -0.969406,1.006177 -1.465475,1.499571 -0.498742,0.492726 -1.012862,0.973417 -1.522301,1.465474 -0.510108,0.492726 -1.022222,0.986789 -1.520965,1.520296 0.679922,-0.273439 1.30101,-0.650505 1.89803,-1.059661 0.591672,-0.415841 1.157939,-0.872465 1.674064,-1.384579 0.514788,-0.513451 1.002165,-1.060998 1.405304,-1.676069 0.395785,-0.615071 0.739423,-1.282959 0.885168,-2.001656"
         style="fill:#1a1a1a;fill-opacity:1;fill-rule:nonzero;stroke:none;stroke-width:0.0668556"
         id="path8988" />
      <path
         d="m 49.201721,88.008563 -0.163796,5.522271 c 0,0 -9.370478,-5.426668 -10.384009,-6.876765 l 0.316227,-5.294294 c 0,0 4.631754,5.522271 8.588268,6.190827 -3.470474,-2.155424 -8.510716,-7.482477 -8.510716,-7.482477 l 0.106969,-1.794403 -1.938812,-2.730382 1.13454,0.110311 5.93009,1.117157 c -0.678585,0.54621 -2.063832,1.009519 -2.880139,0.812295 0,0 3.870938,2.497725 9.125787,2.511765 5.25418,0.01337 14.139286,-10.658785 13.980839,-15.965113 L 63.92332,62.534581 c 0,0 -0.271434,3.810768 -1.167299,5.298973 0.473338,-3.173634 0.85642,-9.601798 -1.918755,-11.861517 l 0.12034,-1.416001 c 0,0 4.271403,1.476171 5.793705,3.604184 0,0 -0.297508,5.25418 -0.724715,7.931746 -3.04126,5.708798 -8.990738,13.953429 -15.245746,16.566813 0,0 -4.359653,0.154437 -9.24479,-2.736399 2.053135,2.081214 5.481489,3.507913 7.117445,3.714496 0,0 -1.189361,0.909905 -1.239502,2.39343 l 1.787718,1.978257"
         style="fill:#1a1a1a;fill-opacity:1;fill-rule:nonzero;stroke:none;stroke-width:0.0668556"
         id="path8990" />
      <path
         d="m 57.008447,65.824544 c -0.30085,0.813632 -0.548216,1.639967 -0.774856,2.470314 -0.119003,0.413836 -0.218618,0.832352 -0.326924,1.248193 l -0.294833,1.255548 c -0.188533,0.839038 -0.352998,1.683424 -0.499411,2.531821 -0.146414,0.848397 -0.272103,1.700806 -0.343638,2.565917 0.301519,-0.813632 0.549553,-1.639299 0.776193,-2.469645 0.226641,-0.830346 0.435899,-1.664704 0.62042,-2.50441 l 0.265417,-1.262902 c 0.07822,-0.423196 0.165801,-0.843717 0.233326,-1.268919 0.145745,-0.848397 0.272102,-1.701474 0.344306,-2.565917"
         style="fill:#1a1a1a;fill-opacity:1;fill-rule:nonzero;stroke:none;stroke-width:0.0668556"
         id="path8992" />
      <path
         d="M 56.840639,86.649389 C 56.240276,86.500301 55.65997,86.347201 55.080332,86.186748 54.5027,86.022283 53.926405,85.856482 53.352784,85.683994 l -1.720863,-0.533507 c -0.572284,-0.188533 -1.145905,-0.359015 -1.712171,-0.600364 0.440578,0.443253 0.997485,0.743435 1.548375,1.012194 0.554901,0.268759 1.131865,0.48604 1.720863,0.664544 0.589666,0.175162 1.191366,0.313553 1.803095,0.392443 0.610391,0.08223 1.234154,0.116328 1.848556,0.03008"
         style="fill:#1a1a1a;fill-opacity:1;fill-rule:nonzero;stroke:none;stroke-width:0.0668556"
         id="path8994" />
      <path
         d="m 54.597635,88.026614 c -0.651174,-0.320239 -1.276273,-0.608386 -1.89803,-0.907231 l -1.8519,-0.894527 -1.857248,-0.899208 c -0.627105,-0.29617 -1.254879,-0.594346 -1.932126,-0.860431 0.439241,0.580975 0.975423,1.065009 1.545701,1.496228 0.572284,0.429213 1.185349,0.802267 1.829837,1.114482 0.643819,0.311547 1.319061,0.565599 2.015696,0.741429 0.697972,0.17115 1.422687,0.274776 2.14807,0.209258"
         style="fill:#1a1a1a;fill-opacity:1;fill-rule:nonzero;stroke:none;stroke-width:0.0668556"
         id="path8996" />
      <path
         d="m 53.380863,90.752316 c -0.559581,-0.539525 -1.154596,-1.003503 -1.748273,-1.459458 -0.595684,-0.451943 -1.194041,-0.887842 -1.78705,-1.324409 -0.593009,-0.437235 -1.180001,-0.874471 -1.75897,-1.329089 -0.581644,-0.452612 -1.148579,-0.926618 -1.752954,-1.413995 0.287479,0.723377 0.732738,1.370539 1.24084,1.952851 0.510777,0.582312 1.091083,1.097769 1.710166,1.552387 0.619082,0.453949 1.274936,0.850403 1.956194,1.192035 0.683264,0.338289 1.389259,0.631785 2.140047,0.829678"
         style="fill:#1a1a1a;fill-opacity:1;fill-rule:nonzero;stroke:none;stroke-width:0.0668556"
         id="path8998" />
      <path
         d="m 62.029301,76.812259 c 0.211264,-0.286142 0.409156,-0.581644 0.60638,-0.876477 0.189201,-0.301519 0.379071,-0.599695 0.558913,-0.906562 0.720703,-1.22212 1.345803,-2.497056 1.926777,-3.792048 0.571616,-1.299004 1.104455,-2.61539 1.603866,-3.945816 0.505428,-1.32441 1.239502,-3.06934 1.70816,-4.394418 l 0.413167,0.350323 c 0.0074,0.218618 0.06886,0.436567 0.179173,0.621089 0.03811,0.06418 0.0829,0.125688 0.131706,0.184521 -0.03878,0.142403 -0.07822,0.284805 -0.119003,0.42587 l 0.433893,0.06886 c 0.07555,0.469326 0.30553,0.894527 0.617745,1.26357 -0.01738,0.06819 -0.03677,0.135717 -0.05549,0.203241 l 0.285473,0.04546 c 0.147083,0.143071 0.306199,0.278787 0.45863,0.41183 0.02072,0.01738 0.03477,0.02875 0.04613,0.0361 0.006,0.01337 0.01404,0.02875 0.02674,0.05081 0.02942,0.05215 0.06017,0.103627 0.09092,0.155774 -0.03142,0.165802 -0.06819,0.326255 -0.106301,0.488046 -0.07889,0.326923 -0.169144,0.642482 -0.26809,0.956034 -0.0956,0.314222 -0.203241,0.622426 -0.314222,0.928624 -0.108974,0.306199 -0.225971,0.609723 -0.348986,0.909236 -0.482697,1.204069 -1.051638,2.367356 -1.656681,3.510587 -0.607049,1.141893 -1.26357,2.259718 -1.994302,3.331413 -0.371048,0.532171 -0.752125,1.058993 -1.177327,1.551718 -0.420521,0.493395 -0.880488,0.967401 -1.408647,1.337112 0.418516,-0.489383 0.746777,-1.030913 1.058324,-1.581135 0.304193,-0.554901 0.588998,-1.119162 0.85174,-1.694788 0.463978,-0.992806 0.885837,-2.005668 1.289644,-3.024547 -0.487377,0.877145 -1.008182,1.73624 -1.587151,2.558563 -0.395785,0.562924 -0.815638,1.109803 -1.278279,1.619242 -0.462641,0.507434 -0.959377,0.990131 -1.520296,1.377225 0.944001,-0.98144 1.615231,-2.154087 2.22696,-3.341442 0.608385,-1.192035 1.126516,-2.428194 1.608545,-3.676388 0.233994,-0.627105 0.46732,-1.254211 0.684601,-1.887333 0.09962,-0.288816 0.195887,-0.577632 0.290822,-0.867785 -0.375729,0.846391 -0.776862,1.681417 -1.220115,2.495718 -0.340963,0.642482 -0.707332,1.272931 -1.096431,1.889339 -0.383083,0.619083 -0.800261,1.218777 -1.242845,1.799084 -0.437236,0.58298 -0.913248,1.13855 -1.424693,1.65735 -0.512782,0.516793 -1.060998,1.000159 -1.660692,1.403967 0.506765,-0.514788 0.961383,-1.067684 1.381236,-1.641973"
         style="fill:#1a1a1a;fill-opacity:1;fill-rule:nonzero;stroke:none;stroke-width:0.0668556"
         id="path9000" />
      <path
         d="m 70.527982,71.295336 -1.111808,2.15275 -1.085066,2.142053 c -0.358346,0.714686 -0.711343,1.433383 -1.06033,2.156092 -0.346312,0.725383 -0.691286,1.448092 -1.024227,2.199549 0.594346,-0.570947 1.085735,-1.229474 1.54169,-1.904047 0.451275,-0.678584 0.85642,-1.385248 1.220114,-2.113305 0.363026,-0.728057 0.686607,-1.47684 0.954029,-2.248353 0.261405,-0.771514 0.484034,-1.565758 0.565598,-2.384739"
         style="fill:#1a1a1a;fill-opacity:1;fill-rule:nonzero;stroke:none;stroke-width:0.0668556"
         id="path9002" />
      <path
         d="m 32.350103,44.081104 c -2.031741,-0.04814 -9.777628,-1.228137 -11.356757,-2.38407 l 0.957372,2.660183 0.83302,-0.413167 9.566365,0.137054"
         style="fill:#1a1a1a;fill-opacity:1;fill-rule:nonzero;stroke:none;stroke-width:0.0668556"
         id="path9008" />
      <path
         d="m 29.937954,53.787865 c -0.187864,-0.02072 -7.95314,-2.331254 -7.95314,-2.331254 l 0.372386,1.247526 0.154436,0.399127 7.426318,0.684601"
         style="fill:#1a1a1a;fill-opacity:1;fill-rule:nonzero;stroke:none;stroke-width:0.0668556"
         id="path9010" />
      <path
         d="m 44.626793,11.799887 c 0.303525,0.590335 1.003503,0.701984 1.375888,0.278119 0.922607,-1.052307 0.01137,-2.017701 0.954029,-3.7064731 0.891185,-1.5971798 2.049792,-1.5884886 2.6896,-3.0419289 0.317564,-0.7200346 -0.04078,-1.8940186 -0.862437,-2.0671746 -0.920601,-0.1938811 -1.667378,-0.054153 -2.223616,0.705995 -0.57897,0.7922386 -0.885168,1.5122732 -1.352489,3.2739177 -0.321575,1.2154345 -0.296838,1.4173383 -0.637133,2.9316169 -0.158448,0.706664 -0.11566,1.292319 0.05616,1.625928"
         style="fill:#ffffff;fill-opacity:1;fill-rule:nonzero;stroke:none;stroke-width:0.0668556"
         id="path9012" />
      <path
         d="m 39.490948,34.891136 c -3.891664,-0.275445 -7.077332,-0.0575 -7.116108,0.487377 -0.08156,1.154596 3.084716,1.210086 6.97638,1.485531 3.890994,0.276113 7.044572,0.507434 7.11477,-0.487377 0.03878,-0.544205 -3.084047,-1.209418 -6.975042,-1.485531"
         style="fill:#ffffff;fill-opacity:1;fill-rule:nonzero;stroke:none;stroke-width:0.0668556"
         id="path9014" />
      <path
         d="m 38.038845,45.149456 c -3.185669,-0.3891 -5.854544,-0.236669 -5.896663,0.346312 -0.104294,1.461463 2.454269,1.366528 5.639937,1.755627 3.186337,0.3891 5.81443,0.718029 5.896662,-0.346311 0.09293,-1.214098 -2.454268,-1.366529 -5.639936,-1.755628"
         style="fill:#ffffff;fill-opacity:1;fill-rule:nonzero;stroke:none;stroke-width:0.0668556"
         id="path9016" />
      <path
         d="m 37.297416,55.649793 c -2.977079,-0.399796 -5.44873,-0.831014 -5.526282,0.296171 -0.08357,1.200726 2.275764,1.343797 5.252174,1.743593 2.976411,0.400465 5.422656,1.18535 5.526951,-0.295502 0.03945,-0.566935 -2.275764,-1.344465 -5.252843,-1.744262"
         style="fill:#ffffff;fill-opacity:1;fill-rule:nonzero;stroke:none;stroke-width:0.0668556"
         id="path9018" />
      <path
         d="m 34.417278,65.593224 c -2.719685,-0.710675 -4.878452,-1.359843 -5.168605,-0.350323 -0.312216,1.089077 1.959537,1.512941 4.678553,2.224285 2.719017,0.710675 4.812934,1.625259 5.167937,0.350323 0.143739,-0.515457 -1.958869,-1.512942 -4.677885,-2.224285"
         style="fill:#ffffff;fill-opacity:1;fill-rule:nonzero;stroke:none;stroke-width:0.0668556"
         id="path9020" />
    </g>
  </g>
</svg>
