<?xml version="1.0" encoding="UTF-8" standalone="no"?>
<!-- Uploaded to: SVG Repo, www.svgrepo.com, Generator: SVG Repo Mixer Tools -->

<svg
   height="800px"
   width="800px"
   version="1.1"
   id="Layer_1"
   viewBox="0 0 461.001 461.001"
   xml:space="preserve"
   sodipodi:docname="youtube-bg-white.svg"
   inkscape:version="1.2.2 (b0a8486541, 2022-12-01)"
   xmlns:inkscape="http://www.inkscape.org/namespaces/inkscape"
   xmlns:sodipodi="http://sodipodi.sourceforge.net/DTD/sodipodi-0.dtd"
   xmlns="http://www.w3.org/2000/svg"
   xmlns:svg="http://www.w3.org/2000/svg"><defs
   id="defs260" /><sodipodi:namedview
   id="namedview258"
   pagecolor="#ffffff"
   bordercolor="#000000"
   borderopacity="0.25"
   inkscape:showpageshadow="2"
   inkscape:pageopacity="0.0"
   inkscape:pagecheckerboard="0"
   inkscape:deskcolor="#d1d1d1"
   showgrid="false"
   inkscape:zoom="0.9825"
   inkscape:cx="399.49109"
   inkscape:cy="400"
   inkscape:window-width="1920"
   inkscape:window-height="966"
   inkscape:window-x="0"
   inkscape:window-y="872"
   inkscape:window-maximized="1"
   inkscape:current-layer="Layer_1" />
<rect
   style="fill:#ffffff;stroke-width:0.971369;stroke-linecap:round;stroke-linejoin:round"
   id="rect368"
   width="225.46584"
   height="207.3625"
   x="112.89896"
   y="125.07346" /><g
   id="g255">
	<path
   style="fill:#F61C0D;"
   d="M365.257,67.393H95.744C42.866,67.393,0,110.259,0,163.137v134.728   c0,52.878,42.866,95.744,95.744,95.744h269.513c52.878,0,95.744-42.866,95.744-95.744V163.137   C461.001,110.259,418.135,67.393,365.257,67.393z M300.506,237.056l-126.06,60.123c-3.359,1.602-7.239-0.847-7.239-4.568V168.607   c0-3.774,3.982-6.22,7.348-4.514l126.06,63.881C304.363,229.873,304.298,235.248,300.506,237.056z"
   id="path253" />
</g>
</svg>
